<?xml version="1.0" standalone="no"?>
<!DOCTYPE svg PUBLIC "-//W3C//DTD SVG 20010904//EN"
 "http://www.w3.org/TR/2001/REC-SVG-20010904/DTD/svg10.dtd">
<svg version="1.0" xmlns="http://www.w3.org/2000/svg"
 width="2100.000000pt" height="2100.000000pt" viewBox="0 0 2100.000000 2100.000000"
 preserveAspectRatio="xMidYMid meet">
<metadata>
Created by potrace 1.13, written by Peter Selinger 2001-2015
</metadata>
<g transform="translate(0.000000,2100.000000) scale(0.100000,-0.100000)"
fill="#000000" stroke="none">
<path d="M12455 20452 c-69 -42 -163 -173 -212 -292 -58 -146 -54 -235 27
-485 73 -226 68 -301 -23 -369 -25 -19 -42 -21 -145 -20 -101 1 -144 7 -317
47 -726 166 -1163 207 -1640 152 -232 -27 -662 -117 -875 -182 -318 -99 -387
-113 -460 -93 -27 7 -59 26 -81 49 -68 67 -63 161 17 369 24 62 51 141 60 175
24 89 21 198 -6 272 -66 176 -204 335 -290 335 -38 0 -97 -38 -142 -92 -72
-85 -196 -277 -338 -524 -73 -126 -210 -362 -305 -524 -188 -321 -334 -586
-525 -950 -67 -129 -166 -318 -220 -420 -160 -304 -298 -578 -444 -885 -77
-159 -237 -490 -356 -735 -120 -245 -275 -580 -345 -745 -70 -165 -182 -430
-250 -590 -308 -727 -320 -757 -509 -1260 -74 -198 -169 -448 -211 -555 -42
-107 -114 -314 -159 -460 -46 -146 -157 -485 -246 -755 -97 -294 -186 -584
-222 -725 -33 -129 -79 -302 -103 -385 -54 -185 -97 -356 -125 -500 -34 -174
-58 -275 -116 -490 -66 -247 -92 -376 -143 -720 -23 -149 -63 -387 -90 -530
-207 -1081 -255 -1834 -171 -2665 36 -348 72 -561 161 -933 27 -115 70 -302
94 -416 57 -263 92 -382 206 -694 116 -320 157 -414 285 -667 339 -670 634
-1074 1125 -1541 305 -291 540 -480 914 -735 182 -124 332 -263 385 -357 l32
-57 289 2 289 3 34 95 c19 52 53 147 76 210 73 198 56 304 -69 429 -31 31
-155 130 -276 220 -719 538 -936 746 -1313 1264 -118 162 -174 251 -312 491
-220 385 -324 633 -508 1211 -89 279 -113 376 -172 710 -144 809 -162 1040
-155 1975 5 657 15 785 110 1460 24 173 58 427 75 564 38 307 58 423 115 670
25 107 72 326 105 487 32 162 84 384 115 494 31 110 80 304 110 430 74 313 84
348 186 685 261 854 695 2102 915 2628 48 113 146 357 219 541 333 841 410
966 595 966 101 0 151 -30 342 -207 341 -317 524 -417 950 -523 348 -86 413
-137 678 -535 531 -796 907 -1264 1145 -1423 100 -67 176 -90 281 -85 193 10
338 133 741 625 214 260 301 380 550 756 348 526 398 568 786 658 279 65 418
118 605 232 143 87 228 155 395 310 174 162 229 197 314 197 64 0 107 -16 157
-61 78 -68 167 -231 275 -503 29 -70 101 -244 160 -385 268 -631 400 -972 556
-1431 46 -135 108 -310 138 -390 63 -166 253 -740 322 -970 26 -85 80 -258
122 -385 41 -126 103 -347 138 -490 35 -143 86 -339 114 -435 71 -251 85 -308
135 -563 25 -125 68 -321 95 -435 65 -271 82 -364 136 -752 26 -179 64 -440
85 -580 41 -268 59 -411 86 -675 22 -207 32 -1455 15 -1755 -13 -228 -52 -586
-81 -750 -42 -237 -131 -675 -160 -793 -42 -167 -225 -712 -295 -877 -122
-290 -292 -602 -503 -925 -339 -520 -748 -932 -1437 -1446 -293 -218 -340
-278 -340 -429 0 -77 4 -92 38 -165 21 -44 72 -140 114 -212 l75 -133 183 0
182 0 26 38 c86 131 198 229 452 397 411 272 637 448 935 727 291 273 407 401
617 679 225 297 351 505 549 904 241 488 328 718 435 1155 39 157 95 377 124
490 96 363 140 606 202 1130 80 676 11 1612 -192 2625 -35 176 -85 433 -109
571 -57 312 -92 484 -161 779 -30 127 -68 293 -85 370 -45 205 -73 311 -135
516 -31 101 -81 283 -111 404 -30 121 -95 339 -143 485 -49 146 -157 474 -241
730 -138 422 -272 791 -430 1190 -32 80 -92 237 -135 350 -43 113 -143 358
-222 545 -80 187 -181 428 -225 535 -44 107 -120 283 -168 390 -49 107 -126
281 -173 385 -206 466 -881 1837 -1117 2270 -51 94 -155 289 -232 435 -167
315 -278 514 -483 865 -84 143 -180 310 -215 370 -61 107 -268 434 -319 505
-59 83 -117 130 -158 130 -10 0 -32 -8 -48 -18z m-1568 -1687 c203 -39 304
-142 275 -282 -16 -77 -48 -135 -194 -347 -220 -320 -258 -365 -345 -410 -48
-24 -125 -21 -181 8 -80 41 -153 126 -364 421 -183 256 -208 370 -107 480 71
77 224 125 457 145 134 11 362 3 459 -15z m-1442 -959 c183 -92 351 -304 406
-513 29 -112 36 -284 15 -401 -34 -194 -116 -353 -245 -475 -162 -152 -325
-176 -395 -58 -28 48 -31 144 -11 342 24 238 17 513 -19 729 -32 191 -35 295
-9 348 39 81 132 91 258 28z m-1275 -4 c47 -34 60 -77 60 -192 0 -58 -5 -136
-10 -175 -25 -198 -32 -400 -18 -595 20 -299 18 -405 -10 -462 -30 -61 -91
-94 -155 -84 -142 22 -305 178 -381 364 -77 192 -86 484 -19 697 94 300 391
550 533 447z m3618 8 c69 -42 77 -120 36 -367 -47 -287 -48 -478 -4 -778 36
-243 18 -333 -72 -370 -144 -57 -374 125 -483 383 -57 136 -70 201 -70 362 0
121 4 158 23 225 61 212 210 424 360 513 94 55 157 64 210 32z m1234 1 c142
-61 292 -235 356 -414 44 -122 57 -206 57 -357 -1 -275 -82 -490 -241 -641
-75 -70 -136 -106 -207 -120 -50 -10 -60 -9 -101 10 -34 17 -50 33 -68 69 -20
41 -22 61 -21 162 1 63 6 156 12 205 22 176 25 428 6 590 -27 241 -31 377 -10
430 23 63 55 85 121 85 29 0 71 -8 96 -19z m-2352 -1489 c41 -29 91 -86 195
-223 91 -118 200 -245 310 -359 94 -97 185 -203 204 -234 106 -178 76 -334
-119 -631 -221 -335 -505 -656 -640 -723 -169 -85 -328 -29 -506 177 -199 232
-437 564 -504 706 -49 102 -64 169 -58 259 9 137 50 192 356 475 82 76 168
170 258 282 73 92 158 191 186 220 111 109 212 126 318 51z"/>
<path d="M7836 13409 c-60 -9 -135 -58 -177 -117 -55 -76 -88 -167 -149 -414
-34 -134 -74 -288 -90 -343 -47 -164 -76 -287 -129 -545 -27 -135 -70 -330
-95 -435 -53 -229 -76 -341 -116 -585 -17 -102 -55 -320 -85 -485 -119 -658
-135 -775 -170 -1192 -14 -166 -36 -400 -49 -520 -73 -648 -88 -893 -93 -1558
-6 -713 4 -917 72 -1500 13 -115 38 -341 55 -501 37 -364 57 -477 125 -740 30
-115 87 -336 125 -492 39 -155 91 -339 116 -408 164 -453 408 -986 554 -1208
130 -199 237 -276 380 -276 135 1 211 44 460 265 179 160 373 310 515 400 138
87 454 239 605 290 73 25 206 63 295 85 377 92 576 93 992 4 544 -116 892
-301 1463 -778 118 -99 199 -159 249 -184 70 -34 81 -37 165 -37 75 0 99 4
138 23 160 79 307 307 567 876 175 382 301 732 366 1011 20 88 62 257 92 375
87 333 120 498 148 715 36 291 103 1019 115 1245 12 242 5 1405 -9 1595 -6 77
-22 271 -36 430 -13 160 -34 416 -45 570 -38 520 -58 679 -151 1179 -33 176
-75 428 -94 560 -45 308 -64 410 -130 686 -29 124 -74 335 -100 470 -49 261
-68 340 -145 625 -27 99 -68 261 -91 360 -64 280 -111 389 -201 471 -123 111
-294 102 -408 -22 -82 -89 -116 -214 -100 -370 10 -93 25 -161 86 -382 24 -89
69 -274 100 -410 30 -136 81 -350 113 -477 63 -249 83 -350 135 -695 19 -124
58 -333 86 -465 64 -298 92 -479 125 -805 27 -262 49 -461 109 -990 54 -473
96 -1131 81 -1270 -4 -36 -7 -283 -6 -550 1 -662 -13 -843 -138 -1687 -72
-485 -100 -630 -156 -818 -18 -60 -56 -191 -85 -290 -122 -430 -201 -609 -314
-713 -75 -70 -118 -87 -216 -86 -127 0 -156 12 -470 203 -159 97 -446 243
-580 296 -489 193 -881 266 -1277 236 -283 -22 -472 -61 -773 -160 -354 -118
-526 -199 -873 -414 -282 -175 -410 -208 -553 -143 -105 48 -197 170 -273 361
-51 128 -241 755 -274 905 -14 63 -46 246 -71 405 -25 160 -57 362 -71 450
-126 799 -149 1878 -60 2916 8 97 40 385 70 640 31 255 71 606 90 779 43 385
62 504 130 830 30 140 70 359 90 485 54 343 60 377 135 675 38 151 87 358 110
460 22 102 68 289 101 416 70 273 83 358 69 456 -30 208 -190 344 -374 317z"/>
</g>
</svg>
